<svg id="Layer_1" data-name="Layer 1" xmlns="http://www.w3.org/2000/svg" viewBox="0 0 501.13 1401.99"><title>Bolt</title><path d="M940.32,757.85H754.83c9.78-37.91,17.13-69.47,26.1-100.56,37.54-130.06,75.85-259.9,113.27-390,14.41-50.11,13.67-50.24,67-50.26q105.27,0,210.53-.28c11.56,0,23.11,0,41.09,0-8.92,27.68-15,49.91-23.19,71.33-34.35,89.79-69.34,179.32-104.08,269-13.64,35.17-9.55,41.37,29.1,41.73,42.42.4,84.85.09,135.2.09-60.07,136.69-117,266.31-177.75,404.46h176.52q3.64,5.55,7.28,11.11L867.81,1618.73l-6.93-2.5c13.1-48.09,26-96.25,39.36-144.25,27.82-99.5,55.07-199.17,84.46-298.21,8.59-28.94-1.42-36.65-27.66-36.41-44.81.41-89.62.11-142.61.11Z" transform="translate(-754.83 -216.74)" style="fill:red"/></svg>